Coordinates
version=1
nRows=9
nColumns=36
inDegrees=yes

Units are S.I. units (second, meters, Newtons, ...)
If the header above contains a line with 'inDegrees', this indicates whether rotational values are in degrees (yes) or radians (no).

endheader
time	pelvis_tilt	pelvis_list	pelvis_rotation	pelvis_tx	pelvis_ty	pelvis_tz	hip_flexion_r	hip_adduction_r	hip_rotation_r	knee_angle_r	knee_angle_r_beta	ankle_angle_r	subtalar_angle_r	mtp_angle_r	hip_flexion_l	hip_adduction_l	hip_rotation_l	knee_angle_l	knee_angle_l_beta	ankle_angle_l	subtalar_angle_l	mtp_angle_l	lumbar_extension	lumbar_bending	lumbar_rotation	arm_flex_r	arm_add_r	arm_rot_r	elbow_flex_r	pro_sup_r	arm_flex_l	arm_add_l	arm_rot_l	elbow_flex_l	pro_sup_l
     14.96666670	     -4.67734800	     -5.30283370	      0.00892940	      1.12126545	      0.91086997	      0.72941692	     31.20235381	      3.81975471	     -0.23892518	     11.62579865	      0.20290846	      3.35279531	      2.91052841	     -7.49999987	     -6.85683949	     -5.00723361	      1.23748596	     19.95654874	      0.34830748	     17.51664800	      5.20629207	     -7.49999987	    -10.41431263	      7.63734110	      2.50185773	     -7.29765901	    -14.15575309	     -0.52546175	     29.13651689	     58.90774139	     11.22388504	     -9.48308742	     -1.72683270	     31.24105783	     58.97943680
     14.98333330	     -5.28128401	     -5.65105586	      0.07904673	      1.12902730	      0.91018911	      0.73359085	     31.15056442	      4.49803972	     -0.67059592	     12.58027045	      0.21956714	      2.43742592	      2.85288239	     -7.49999987	     -6.83484218	     -5.67945363	      0.58554073	     21.52386479	      0.37566231	     15.37123672	      5.66649773	     -7.49999987	     -9.56359333	      8.13643512	      2.32080215	     -7.75879031	    -14.48390140	     -0.71148504	     29.48082554	     58.88636030	     11.01122808	     -9.28973076	     -2.12573100	     30.81778873	     59.05148322
     15.00000000	     -5.76124183	     -6.10244668	      0.00348822	      1.13724534	      0.90712313	      0.73852340	     30.84427456	      5.37014428	     -0.95583702	     13.74046396	      0.23981634	      1.87242493	      2.59910195	     -7.49999987	     -6.89685822	     -6.50336909	     -0.01125478	     23.25930846	      0.40595151	     12.80308655	      6.10938109	     -7.49999987	     -8.51922397	      8.68659702	      2.14947718	     -8.28448709	    -14.72457068	     -0.95046729	     29.64897473	     58.82532520	     10.53200237	     -9.06860039	     -2.81348440	     29.92649089	     59.08583799
     15.01666670	     -6.01504889	     -6.63070799	     -0.20815212	      1.14104338	      0.90261032	      0.74343023	     30.34191023	      6.38835715	     -1.12395418	     15.17061106	      0.26477711	      1.86122138	      2.22520110	     -7.49999987	     -6.84742332	     -7.39809863	     -0.47282608	     25.52566039	      0.44550682	      9.94273103	      6.16701352	     -7.49999987	     -7.56301908	      9.25423083	      2.06262491	     -8.69841223	    -14.87824611	     -1.26474469	     29.56292195	     58.71386171	      9.98739851	     -8.78432528	     -3.85281852	     28.73314196	     59.17742031
     15.03333330	     -6.13125398	     -7.13333499	     -0.67892101	      1.14175538	      0.89905693	      0.74808192	     29.77648640	      7.51115109	     -0.83107821	     16.83217726	      0.29377691	      2.48087802	      1.68820647	     -7.49999987	     -6.30812135	     -8.24226451	     -0.91298109	     28.71664323	      0.50119997	      6.83502182	      5.80084845	     -7.49999987	     -6.91361923	      9.86556330	      2.02011916	     -9.18083955	    -15.18860982	     -1.44323794	     30.41502399	     58.70549668	      8.76728942	     -8.79396705	     -4.04817052	     28.91625777	     59.21401103
     15.05000000	     -6.00006978	     -7.48538632	     -1.13621714	      1.14321382	      0.89921053	      0.75168196	     29.00215961	      8.48466361	     -0.27617760	     18.56072984	      0.32394585	      3.32260187	      0.62907961	     -7.49999987	     -5.08515427	     -8.90076212	     -0.92364771	     33.18875418	      0.57925304	      3.29242240	      4.75451657	     -7.49999987	     -6.43652584	     10.28306893	      2.10987878	     -9.08992184	    -15.34256015	     -1.74862570	     30.24719294	     58.65026464	      8.40207845	     -8.54347171	     -4.57166026	     26.72748335	     59.32802346
     15.06666670	     -5.64245840	     -7.72795598	     -1.71879488	      1.14637392	      0.90260442	      0.75435953	     27.86949443	      9.34866840	      0.38124046	     20.04336017	      0.34982263	      4.56723258	      0.04793142	     -7.49999987	     -3.60016173	     -9.40871520	     -0.89459902	     38.21458574	      0.66697034	     -0.45975108	      3.65781299	     -7.49999987	     -6.37097898	     10.64748067	      2.41539739	     -8.96471802	    -15.53822154	     -2.09819420	     30.39434103	     58.61611545	      7.75994196	     -8.31949088	     -4.76011429	     25.48492772	     59.47638058
     15.08333330	     -5.20540481	     -7.83791340	     -2.40099902	      1.14817755	      0.90653293	      0.75748582	     26.49303553	     10.05767745	      1.13872866	     21.20916938	      0.37016984	      5.74849216	     -0.29637112	     -7.49999987	     -1.88641940	     -9.69544543	     -0.76978128	     43.42492155	      0.75790786	     -4.11406288	      2.48040983	     -7.49999987	     -6.52227745	     10.87732197	      2.91617240	     -8.69923032	    -15.64557623	     -2.50145814	     30.46475695	     58.60503190	      7.17143329	     -8.11730079	     -4.82756918	     24.25648022	     59.66240140
     15.10000000	     -4.70840223	     -7.79976306	     -3.10331525	      1.14685470	      0.90908251	      0.76200705	     24.92973049	     10.54224621	      1.96343153	     22.05770411	      0.38497956	      6.87708165	     -0.37714725	     -7.49999987	      0.07447041	     -9.82309315	     -0.74442516	     48.75362444	      0.85091127	     -7.17372151	      1.17713634	     -7.49999987	     -6.83920449	     10.88875668	      3.60748236	     -8.32591448	    -15.64559184	     -2.82753854	     30.50746383	     58.63350425	      6.71839766	     -7.97200293	     -4.77957864	     23.33466241	     59.85909158
